<svg width="13" height="8" viewBox="0 0 13 8" fill="none" xmlns="http://www.w3.org/2000/svg">
<path d="M6.31641 7.20801C6.14323 7.20801 5.98828 7.14193 5.85156 7.00977L0.560547 1.5957C0.501302 1.53646 0.455729 1.47038 0.423828 1.39746C0.391927 1.31999 0.375977 1.23796 0.375977 1.15137C0.375977 1.03288 0.40332 0.925781 0.458008 0.830078C0.512695 0.734375 0.585612 0.65918 0.676758 0.604492C0.772461 0.549805 0.879557 0.522461 0.998047 0.522461C1.17122 0.522461 1.31934 0.581706 1.44238 0.700195L6.67871 6.05273H5.94727L11.1836 0.700195C11.3112 0.581706 11.4593 0.522461 11.6279 0.522461C11.7464 0.522461 11.8512 0.549805 11.9424 0.604492C12.0381 0.65918 12.1133 0.734375 12.168 0.830078C12.2227 0.925781 12.25 1.03288 12.25 1.15137C12.25 1.31999 12.1885 1.46582 12.0654 1.58887L6.77441 7.00977C6.71517 7.07357 6.64453 7.1237 6.5625 7.16016C6.48503 7.19206 6.40299 7.20801 6.31641 7.20801Z" fill="#868E96"/>
</svg>
