<svg width="30" height="30" viewBox="0 0 30 30" fill="none" xmlns="http://www.w3.org/2000/svg">
<rect width="30" height="30" rx="4" fill="#212529"/>
<path d="M14.7275 20.251C14.5407 20.251 14.3652 20.2122 14.2012 20.1348C14.0417 20.0573 13.8708 19.932 13.6885 19.7588L10.8652 17.0996C10.8288 17.0632 10.7786 17.0449 10.7148 17.0449H8.79395C8.26986 17.0449 7.86654 16.9014 7.58398 16.6143C7.30599 16.3226 7.16699 15.8988 7.16699 15.3428V12.8066C7.16699 12.2552 7.30599 11.8337 7.58398 11.542C7.86654 11.2503 8.26986 11.1045 8.79395 11.1045H10.7217C10.7764 11.1045 10.8265 11.0863 10.8721 11.0498L13.6885 8.41113C13.889 8.22884 14.0645 8.09668 14.2148 8.01465C14.3652 7.93262 14.5339 7.8916 14.7207 7.8916C15.0033 7.8916 15.2357 7.9873 15.418 8.17871C15.6003 8.37012 15.6914 8.60482 15.6914 8.88281V19.2939C15.6914 19.5628 15.6003 19.7884 15.418 19.9707C15.2357 20.1576 15.0055 20.251 14.7275 20.251ZM18.1182 17.1885C17.9359 17.07 17.8288 16.9082 17.7969 16.7031C17.7695 16.498 17.8288 16.277 17.9746 16.04C18.1569 15.7712 18.2959 15.4681 18.3916 15.1309C18.4919 14.7891 18.542 14.4336 18.542 14.0645C18.542 13.6953 18.4919 13.3398 18.3916 12.998C18.2959 12.6562 18.1569 12.3532 17.9746 12.0889C17.8242 11.8564 17.765 11.6377 17.7969 11.4326C17.8288 11.223 17.9359 11.0589 18.1182 10.9404C18.2868 10.8311 18.4645 10.7946 18.6514 10.8311C18.8382 10.8675 18.9886 10.9655 19.1025 11.125C19.3896 11.5124 19.613 11.9613 19.7725 12.4717C19.932 12.9775 20.0117 13.5085 20.0117 14.0645C20.0117 14.6204 19.932 15.1536 19.7725 15.6641C19.613 16.1699 19.3896 16.6143 19.1025 16.9971C18.9886 17.1611 18.8382 17.2614 18.6514 17.2979C18.4645 17.3298 18.2868 17.2933 18.1182 17.1885ZM21.0029 19.0479C20.8161 18.9339 20.709 18.7744 20.6816 18.5693C20.6589 18.3643 20.7113 18.1569 20.8389 17.9473C21.1943 17.4095 21.4701 16.8079 21.666 16.1426C21.8665 15.4727 21.9668 14.7799 21.9668 14.0645C21.9668 13.3444 21.8688 12.6517 21.6729 11.9863C21.4769 11.3164 21.1989 10.7126 20.8389 10.1748C20.7067 9.96973 20.6543 9.76465 20.6816 9.55957C20.709 9.35449 20.8161 9.19499 21.0029 9.08105C21.1761 8.97168 21.3561 8.9375 21.543 8.97852C21.7344 9.01497 21.8893 9.12207 22.0078 9.2998C22.4635 9.94238 22.8145 10.6784 23.0605 11.5078C23.3066 12.3327 23.4297 13.1849 23.4297 14.0645C23.4297 14.944 23.3044 15.7962 23.0537 16.6211C22.8076 17.446 22.459 18.182 22.0078 18.8291C21.8893 19.0023 21.7344 19.1071 21.543 19.1436C21.3561 19.1846 21.1761 19.1527 21.0029 19.0479Z" fill="white"/>
</svg>
