<svg width="30" height="30" viewBox="0 0 30 30" fill="none" xmlns="http://www.w3.org/2000/svg">
<rect width="30" height="30" rx="4" fill="#212529"/>
<path d="M11.7734 17.0449C11.2448 17.0449 10.8438 16.9059 10.5703 16.6279C10.3014 16.3454 10.167 15.9261 10.167 15.3701V12.7861C10.167 12.2484 10.2946 11.8428 10.5498 11.5693L18.6162 19.6289C18.5433 19.834 18.4271 19.9889 18.2676 20.0938C18.1126 20.1986 17.9326 20.251 17.7275 20.251C17.5407 20.251 17.3652 20.2122 17.2012 20.1348C17.0417 20.0573 16.8685 19.932 16.6816 19.7588L13.8379 17.0996C13.7969 17.0632 13.7467 17.0449 13.6875 17.0449H11.7734ZM18.6914 15.6572L13.8721 10.8516H14.0156C14.0475 10.8516 14.0771 10.8379 14.1045 10.8105L16.6816 8.41113C16.8822 8.22884 17.0576 8.09668 17.208 8.01465C17.363 7.93262 17.5339 7.8916 17.7207 7.8916C18.0033 7.8916 18.2357 7.9873 18.418 8.17871C18.6003 8.37012 18.6914 8.60482 18.6914 8.88281V15.6572ZM21.0977 20.873L8.94336 8.73242C8.83854 8.6276 8.78613 8.49772 8.78613 8.34277C8.78613 8.18327 8.83854 8.05111 8.94336 7.94629C9.05729 7.83691 9.18945 7.78223 9.33984 7.78223C9.49479 7.78223 9.62923 7.83691 9.74316 7.94629L21.8838 20.0869C21.9932 20.1963 22.0479 20.3262 22.0479 20.4766C22.0479 20.6315 21.9932 20.7637 21.8838 20.873C21.779 20.9824 21.6468 21.0371 21.4873 21.0371C21.3324 21.0371 21.2025 20.9824 21.0977 20.873Z" fill="white"/>
</svg>
