<svg width="142" height="48" viewBox="0 0 142 48" fill="none" xmlns="http://www.w3.org/2000/svg">
<rect opacity="0.6" x="40.7432" y="29.3717" width="14.4048" height="28.8096" transform="rotate(135 40.7432 29.3717)" fill="#5B53FF"/>
<rect opacity="0.6" x="10.1855" y="39.5573" width="14.4048" height="28.8096" transform="rotate(-135 10.1855 39.5573)" fill="#5B53FF"/>
<path d="M54.5198 24.5769C54.7986 24.5445 55.0184 24.4311 55.1792 24.2367C55.3507 24.0422 55.4365 23.7992 55.4365 23.5076V23.2808C55.4365 22.5895 55.2006 22.0495 54.7289 21.6606C54.2679 21.261 53.6247 21.0612 52.7992 21.0612C51.9308 21.0612 51.234 21.2826 50.7087 21.7254C50.1941 22.1575 49.9368 22.7623 49.9368 23.54H45.6593C45.6593 21.8767 46.3133 20.5427 47.6212 19.5383C48.9291 18.5338 50.6551 18.0315 52.7992 18.0315C55.0505 18.0315 56.7658 18.5392 57.9451 19.5545C59.1243 20.5589 59.714 22.0333 59.714 23.9774V34.3949H55.5973V31.9323C55.2113 32.7532 54.5413 33.4229 53.5872 33.9413C52.6438 34.4597 51.5556 34.719 50.3228 34.719C48.7576 34.719 47.4764 34.2869 46.4794 33.4229C45.4931 32.548 45 31.4247 45 30.053C45 28.7029 45.4342 27.6012 46.3025 26.7479C47.1709 25.8946 48.4359 25.36 50.0976 25.1439L54.5198 24.5769ZM49.8242 28.0602C49.4597 28.4058 49.2775 28.8811 49.2775 29.4859C49.2775 30.0908 49.4973 30.5822 49.9368 30.9602C50.3764 31.3275 50.966 31.5111 51.7057 31.5111C52.885 31.5111 53.8284 31.1547 54.5359 30.4418C55.2435 29.7181 55.5973 28.8217 55.5973 27.7524V26.7317C55.147 26.9261 54.5198 27.0719 53.7158 27.1691L51.3519 27.4283C50.7087 27.4931 50.1995 27.7038 49.8242 28.0602Z" fill="#212529"/>
<path d="M67.1922 27.6552V34.3949H62.9147V18.307H67.0635V22.2115C67.2565 21.0342 67.7818 20.0891 68.6395 19.3762C69.4971 18.6634 70.6067 18.307 71.9682 18.307H73.3833L73.2225 22.1791H72.0325C70.4566 22.1791 69.2559 22.6381 68.4304 23.5562C67.6049 24.4635 67.1922 25.8298 67.1922 27.6552Z" fill="#212529"/>
<path d="M89.5291 24.4473H85.2516C85.1337 23.6156 84.7638 22.9514 84.142 22.4545C83.5309 21.9469 82.7698 21.693 81.8585 21.693C80.6471 21.693 79.6769 22.1251 78.9479 22.9892C78.2296 23.8532 77.8705 24.9873 77.8705 26.3915C77.8705 27.774 78.2404 28.9027 78.9801 29.7775C79.7198 30.6416 80.6793 31.0737 81.8585 31.0737C82.8448 31.0737 83.6703 30.809 84.335 30.2798C84.9997 29.7505 85.4124 29.0323 85.5732 28.125H89.899C89.6845 30.08 88.8323 31.6677 87.3421 32.8882C85.8627 34.1087 84.0348 34.719 81.8585 34.719C79.425 34.719 77.4256 33.9359 75.8604 32.3698C74.3059 30.7928 73.5287 28.8001 73.5287 26.3915C73.5287 23.9504 74.3059 21.9469 75.8604 20.3807C77.4149 18.8146 79.4143 18.0315 81.8585 18.0315C84.0348 18.0315 85.8091 18.6148 87.1813 19.7813C88.5642 20.937 89.3468 22.4923 89.5291 24.4473Z" fill="#212529"/>
<path d="M100.947 24.5769C101.226 24.5445 101.446 24.4311 101.606 24.2367C101.778 24.0422 101.864 23.7992 101.864 23.5076V23.2808C101.864 22.5895 101.628 22.0495 101.156 21.6606C100.695 21.261 100.052 21.0612 99.2265 21.0612C98.3581 21.0612 97.6613 21.2826 97.136 21.7254C96.6214 22.1575 96.3641 22.7623 96.3641 23.54H92.0866C92.0866 21.8767 92.7405 20.5427 94.0485 19.5383C95.3564 18.5338 97.0824 18.0315 99.2265 18.0315C101.478 18.0315 103.193 18.5392 104.372 19.5545C105.552 20.5589 106.141 22.0333 106.141 23.9774V34.3949H102.025V31.9323C101.639 32.7532 100.969 33.4229 100.014 33.9413C99.071 34.4597 97.9829 34.719 96.75 34.719C95.1848 34.719 93.9037 34.2869 92.9067 33.4229C91.9204 32.548 91.4273 31.4247 91.4273 30.053C91.4273 28.7029 91.8615 27.6012 92.7298 26.7479C93.5982 25.8946 94.8632 25.36 96.5249 25.1439L100.947 24.5769ZM96.2515 28.0602C95.887 28.4058 95.7048 28.8811 95.7048 29.4859C95.7048 30.0908 95.9245 30.5822 96.3641 30.9602C96.8036 31.3275 97.3933 31.5111 98.133 31.5111C99.3122 31.5111 100.256 31.1547 100.963 30.4418C101.671 29.7181 102.025 28.8217 102.025 27.7524V26.7317C101.574 26.9261 100.947 27.0719 100.143 27.1691L97.7792 27.4283C97.136 27.4931 96.6267 27.7038 96.2515 28.0602Z" fill="#212529"/>
<path d="M108.393 26.3915C108.393 23.9504 109.101 21.9469 110.516 20.3807C111.931 18.8146 113.716 18.0315 115.871 18.0315C116.889 18.0315 117.854 18.2475 118.765 18.6796C119.687 19.1008 120.411 19.6841 120.936 20.4293V15.1477L125.214 11.0001V34.3949H121.065V32.0133C120.507 32.8882 119.773 33.5579 118.862 34.0223C117.961 34.4867 116.964 34.719 115.871 34.719C113.684 34.719 111.888 33.9467 110.484 32.4022C109.09 30.8468 108.393 28.8433 108.393 26.3915ZM112.735 26.3915C112.735 27.7848 113.11 28.9135 113.861 29.7775C114.611 30.6416 115.597 31.0737 116.82 31.0737C118.031 31.0737 119.012 30.6308 119.762 29.7451C120.523 28.8487 120.904 27.7092 120.904 26.3266V26.0026C120.904 24.7497 120.523 23.7182 119.762 22.9082C119.001 22.0981 118.02 21.693 116.82 21.693C115.608 21.693 114.622 22.1251 113.861 22.9892C113.11 23.8424 112.735 24.9765 112.735 26.3915Z" fill="#212529"/>
<path d="M127.771 29.2915H132.017C132.027 30.0044 132.279 30.5714 132.772 30.9926C133.266 31.4031 133.882 31.6083 134.622 31.6083C135.319 31.6083 135.855 31.4679 136.23 31.1871C136.605 30.9062 136.793 30.5282 136.793 30.053C136.793 29.5993 136.642 29.2159 136.342 28.9027C136.053 28.5894 135.544 28.3302 134.815 28.125L133.03 27.6552C129.696 26.7479 128.029 25.0899 128.029 22.6813C128.029 21.288 128.591 20.1647 129.717 19.3114C130.853 18.4582 132.386 18.0315 134.316 18.0315C136.235 18.0315 137.784 18.5014 138.963 19.4411C140.153 20.3807 140.781 21.639 140.845 23.216H136.6C136.6 22.5787 136.396 22.0765 135.989 21.7092C135.581 21.342 135.034 21.1584 134.348 21.1584C133.727 21.1584 133.233 21.2934 132.869 21.5634C132.515 21.8227 132.338 22.1629 132.338 22.5841C132.338 22.9838 132.478 23.3132 132.756 23.5724C133.046 23.8208 133.555 24.053 134.284 24.2691L135.972 24.7389C137.752 25.2141 139.049 25.873 139.864 26.7155C140.689 27.5472 141.102 28.6002 141.102 29.8748C141.102 31.3437 140.513 32.521 139.333 33.4067C138.154 34.2815 136.573 34.719 134.59 34.719C132.456 34.719 130.784 34.2329 129.572 33.2608C128.372 32.2888 127.771 30.9656 127.771 29.2915Z" fill="#212529"/>
</svg>
